Coordinates
version=1
nRows=37
nColumns=19
inDegrees=yes

Units are S.I. units (second, meters, Newtons, ...)
If the header above contains a line with 'inDegrees', this indicates whether rotational values are in degrees (yes) or radians (no).

endheader
time	pelvis_tilt	pelvis_list	pelvis_rotation	pelvis_tx	pelvis_ty	pelvis_tz	hip_flexion_r	hip_adduction_r	hip_rotation_r	knee_angle_r	knee_angle_r_beta	ankle_angle_r	hip_flexion_l	hip_adduction_l	hip_rotation_l	knee_angle_l	knee_angle_l_beta	ankle_angle_l
     15.15333333	      8.90000111	     -6.92230445	      1.40607270	      1.93935225	      0.85748530	      1.01711871	     21.44146809	      8.68782542	     -6.98483404	     24.64507578	      0.43013772	     -6.33720546	    -19.34809069	    -13.76317786	    -11.95638200	     76.02710756	      1.32692335	    -13.15446143
     15.16000000	      8.66081538	     -7.12256498	      0.21403503	      1.93855341	      0.85456367	      1.01835972	     21.13219338	      9.15630763	     -7.50596831	     26.92626537	      0.46995199	     -4.65396079	    -16.84325376	    -13.86299539	    -12.13966585	     80.77071905	      1.40971499	    -12.74310708
     15.16666667	      8.69086520	     -7.36878761	     -1.11546559	      1.93758141	      0.85167911	      1.01946774	     20.48613338	      9.68611131	     -7.61405462	     29.50913725	      0.51503160	     -2.41109439	    -14.66497410	    -14.06252006	    -12.64189092	     85.11588709	      1.48555248	    -12.44216188
     15.17333333	      8.64101669	     -7.58757352	     -2.48160672	      1.93636710	      0.84861183	      1.02042373	     19.86045261	     10.17770955	     -7.32556596	     32.25024668	      0.56287299	      0.23541041	    -12.29575362	    -14.32360000	    -13.19821556	     89.17271694	      1.55635751	    -12.19834370
     15.18000000	      8.50951204	     -7.79411154	     -3.84041316	      1.93492107	      0.84548164	      1.02125499	     19.21662313	     10.65664073	     -6.67539604	     34.99108292	      0.61070961	      3.12296538	     -9.71738511	    -14.69064566	    -13.74269669	     92.92205964	      1.62179589	    -11.94972627
     15.18666667	      8.33557891	     -7.99451201	     -5.20631620	      1.93319490	      0.84244327	      1.02199404	     18.47589979	     11.15267967	     -5.63422079	     37.58863120	      0.65604538	      6.14703570	     -6.97831080	    -15.16460923	    -14.26850546	     96.33062654	      1.68128660	    -11.67238004
     15.19333333	      8.06593893	     -8.16621987	     -6.42286147	      1.93120058	      0.83959363	      1.02257145	     17.68982027	     11.58939298	     -4.43015881	     39.95323781	      0.69731555	      9.12958043	     -3.91920217	    -15.72782759	    -14.54397815	     99.41411286	      1.73510359	    -11.36647456
     15.20000000	      8.58540876	     -8.52914156	     -7.28867170	      1.92905589	      0.83802404	      1.02276032	     15.71257239	     12.04300243	     -3.22855016	     41.73846720	      0.72847368	     12.02102700	     -1.61426939	    -16.47665647	    -14.55036700	    101.94954029	      1.77935515	    -11.09122420
     15.20666667	      7.64501115	     -8.58904806	     -8.52392380	      1.92679116	      0.83529877	      1.02344264	     15.35048761	     12.41750721	     -1.61822211	     43.58236996	      0.76065585	     14.55850521	      2.47002649	    -17.17087026	    -14.56138622	    104.32175240	      1.82075806	    -10.64921168
     15.21333333	      8.09156453	     -8.81736214	     -9.12873234	      1.92453940	      0.83466952	      1.02349409	     13.08321187	     12.55999854	     -0.35345462	     44.66266526	      0.77951056	     16.93126685	      5.14959787	    -17.80407150	    -14.12607636	    105.97787944	      1.84966293	    -10.26592460
     15.22000000	      7.63791959	     -9.05466901	     -9.69534833	      1.92239552	      0.83362425	      1.02371235	     11.63195692	     12.78017475	      0.78697945	     45.40284698	      0.79242917	     18.71277815	      9.02471316	    -18.57662478	    -13.31852381	    107.37916180	      1.87411992	     -9.83629542
     15.22666667	      7.93615316	     -9.09779909	    -10.11701344	      1.92053522	      0.83401372	      1.02391751	      9.11671536	     12.58171822	      1.98488476	     45.67275127	      0.79713989	     20.28366978	     11.94273123	    -18.95061758	    -12.63362862	    108.02292991	      1.88535579	     -9.43096150
     15.23333333	      8.09820576	     -9.15755416	    -10.36618475	      1.91896198	      0.83481554	      1.02413436	      6.50602581	     12.33728133	      2.99719519	     45.43775996	      0.79303852	     21.36440843	     15.01656644	    -19.27062622	    -11.72300237	    108.20099660	      1.88846364	     -9.01379998
     15.24000000	      8.36582086	     -9.44778731	    -10.04835609	      1.91793898	      0.83615014	      1.02412703	      3.44710915	     12.18921995	      3.32479479	     44.50797198	      0.77681065	     21.77390983	     18.08077451	    -19.64245348	    -10.19215383	    107.98301380	      1.88465913	     -8.65062196
     15.24666667	      8.72791460	     -9.49061148	     -9.84266640	      1.91733389	      0.83807191	      1.02443263	      0.11145398	     11.77855872	      3.81128360	     43.20402800	      0.75405254	     21.79267116	     20.72617952	    -19.66557461	     -9.01366258	    107.15297556	      1.87017223	     -8.27458863
     15.25333333	      9.54911753	     -9.44593972	     -9.63877027	      1.91728314	      0.84093058	      1.02503857	     -3.99615126	     11.20325406	      4.39970402	     41.33776383	      0.72148008	     21.27983851	     22.43719362	    -19.55148758	     -8.21468442	    105.70142570	      1.84483790	     -7.79620780
     15.26000000	      9.70348533	     -9.31148279	     -9.29639474	      1.91767656	      0.84326928	      1.02576395	     -7.46598219	     10.68189513	      4.66505364	     39.17558653	      0.68374297	     20.19917462	     24.85104166	    -19.31106536	     -7.19924246	    103.97169587	      1.81464842	     -7.47828829
     15.26666667	     10.49472244	     -8.98754574	     -9.16137090	      1.91858556	      0.84657432	      1.02689077	    -11.82796518	      9.82990952	      5.21736847	     36.52939113	      0.63755815	     18.56587612	     25.93203955	    -18.95143442	     -6.94880244	    101.61450973	      1.77350776	     -6.93583454
     15.27333333	     10.74835996	     -8.57679152	     -9.00258781	      1.91994936	      0.84939181	      1.02814294	    -15.64350593	      9.00595866	      5.58788539	     33.65728116	      0.58743037	     16.35371958	     27.43894769	    -18.53857024	     -6.69742887	     98.97961374	      1.72752015	     -6.45924882
     15.28000000	     10.71248745	     -8.04531187	     -8.87610404	      1.92170742	      0.85195152	      1.02946972	    -19.13862849	      8.11312970	      5.85176531	     30.62180447	      0.53445131	     13.60344827	     29.00245018	    -18.04335406	     -6.63761243	     96.01856822	      1.67584016	     -5.94091115
     15.28666667	     10.62670211	     -7.29223174	     -8.97289984	      1.92380157	      0.85452841	      1.03101038	    -22.48695743	      6.92660307	      6.12942619	     27.54930006	      0.48082599	     10.40952228	     30.18845731	    -17.48593337	     -7.14048114	     92.63884428	      1.61685285	     -5.37926388
     15.29333333	     10.05076174	     -6.45174597	     -8.99670360	      1.92617390	      0.85646191	      1.03234688	    -25.13258737	      5.76484482	      6.10395519	     24.61188316	      0.42955840	      6.80701556	     31.78568143	    -16.79908410	     -7.60502033	     89.04329962	      1.55409876	     -4.81445855
     15.30000000	      9.00492311	     -5.56294437	     -8.96052621	      1.92869851	      0.85781587	      1.03341929	    -27.00594089	      4.66712470	      5.77402237	     22.00556117	      0.38406950	      2.93318758	     33.72834148	    -16.02502443	     -8.06715839	     85.19232262	      1.48688653	     -4.23159563
     15.30666667	      7.64612423	     -4.47879163	     -9.00273044	      1.93129553	      0.85886950	      1.03428474	    -28.17101778	      3.40170125	      5.25767856	     19.90920448	      0.34748117	     -0.93990256	     35.72187208	    -15.06259850	     -8.78094238	     80.98935885	      1.41353097	     -3.69873722
     15.31333333	      6.06333264	     -3.41112054	     -8.91646621	      1.93390675	      0.85956473	      1.03474154	    -28.73156465	      2.22996288	      4.39058090	     18.38366225	      0.32085543	     -4.76543348	     37.75459810	    -13.99629576	     -9.43287042	     76.50180355	      1.33520836	     -3.16180974
     15.32000000	      4.52245304	     -2.31020352	     -8.60028448	      1.93640081	      0.86017527	      1.03463704	    -28.98065963	      1.11443965	      3.11636452	     17.44300236	      0.30443782	     -8.39272646	     39.53634112	    -12.61425521	     -9.93852581	     71.69951988	      1.25139269	     -2.63690980
     15.32666667	      3.21920107	     -1.29504474	     -8.01968161	      1.93866502	      0.86087369	      1.03395835	    -29.11413668	      0.13829518	      1.42408007	     17.17078561	      0.29968674	    -11.74347830	     40.84207839	    -10.96953434	    -10.17960007	     66.60411808	      1.16246116	     -2.08334977
     15.33333333	      2.17627387	     -0.35801549	     -7.15652885	      1.94067322	      0.86163074	      1.03261050	    -29.16276758	     -0.70894030	     -0.64413141	     17.62012750	      0.30752924	    -14.59950681	     41.64678858	     -8.96470967	     -9.98450034	     61.24127342	      1.06886186	     -1.54959458
     15.34000000	      1.49235965	      0.52792502	     -6.16996367	      1.94238906	      0.86256114	      1.03085151	    -29.15950332	     -1.55736684	     -2.97630866	     18.96328542	      0.33097177	    -16.77005299	     41.76322953	     -6.72149642	     -9.46055718	     55.62725455	      0.97087875	     -1.04120525
     15.34666667	      1.08914464	      1.20162758	     -4.90266687	      1.94381310	      0.86339114	      1.02851976	    -29.11620487	     -2.19035422	     -5.59457460	     21.09039483	      0.36809683	    -18.40944073	     41.37479733	     -4.27893767	     -8.15574024	     49.94751352	      0.87174856	     -0.52827020
     15.35333333	      1.05345871	      1.81760991	     -3.62438357	      1.94486504	      0.86420904	      1.02598434	    -29.02950016	     -2.90954532	     -8.24331323	     24.16843464	      0.42181876	    -19.22711043	     40.29275675	     -1.80186982	     -6.42159563	     44.22054157	      0.77179405	     -0.12261707
     15.36000000	      1.35101315	      2.52259102	     -2.56914002	      1.94579121	      0.86517819	      1.02362061	    -28.94537053	     -3.94406483	    -10.65106552	     27.97470997	      0.48825080	    -19.67547883	     38.45944406	      0.56563825	     -4.61441699	     38.42754513	      0.67068719	      0.10337131
     15.36666667	      1.88848333	      3.15075831	     -1.53650610	      1.94638235	      0.86570158	      1.02125572	    -28.81095966	     -5.02712995	    -12.85370596	     32.50329557	      0.56728953	    -19.44801269	     36.23208305	      2.72219261	     -2.48771852	     32.99992073	      0.57595727	      0.10260500
     15.37333333	      2.73333572	      3.71752829	     -0.75971889	      1.94663071	      0.86607268	      1.01920988	    -28.71855932	     -6.17010127	    -14.39262388	     37.53223715	      0.65506111	    -18.83745380	     33.56805301	      4.46857799	     -0.50875271	     28.06344660	      0.48979954	     -0.12880245
     15.38000000	      3.47767291	      4.16252260	      0.12784339	      1.94669943	      0.86573622	      1.01716185	    -28.35820591	     -7.09689089	    -15.58511828	     42.85464569	      0.74795467	    -17.93725586	     31.12175618	      5.92842721	      1.48744027	     24.00914034	      0.41903855	     -0.59226254
     15.38666667	      4.64016932	      4.72735490	      0.68985623	      1.94642637	      0.86553599	      1.01564840	    -28.20453438	     -8.18373484	    -16.22216561	     48.37109663	      0.84423490	    -17.07254263	     28.27330212	      7.13753255	      2.76400435	     20.69560688	      0.36120648	     -1.23659274
     15.39333333	      5.52271266	      5.13955757	      1.34936015	      1.94590657	      0.86469059	      1.01413289	    -27.57252497	     -8.95017620	    -16.50160487	     53.98245802	      0.94217163	    -16.12660562	     26.02514155	      8.08476433	      3.64392969	     18.57021992	      0.32411148	     -1.95915845
